<svg xmlns="http://www.w3.org/2000/svg" viewBox="0 0 959.88 236.7"><defs><style>.cls-1{font-size:150px;}.cls-1,.cls-12,.cls-3{fill:#fff;}.cls-1,.cls-11,.cls-12,.cls-13,.cls-3,.cls-8{stroke:#681600;stroke-miterlimit:10;}.cls-1,.cls-12,.cls-13,.cls-8{stroke-width:2px;}.cls-1,.cls-3{font-family:ArchivoBlack-Regular, Archivo Black;}.cls-2{letter-spacing:-0.03em;}.cls-3{font-size:36px;}.cls-4{letter-spacing:-0.03em;}.cls-5{letter-spacing:-0.03em;}.cls-6{letter-spacing:-0.01em;}.cls-7{letter-spacing:-0.01em;}.cls-8,.cls-9{fill:#f1e4a2;}.cls-10{fill:#600;}.cls-11{fill:#424253;stroke-width:0.5px;}.cls-13{fill:none;}</style></defs><g id="Layer_2" data-name="Layer 2"><text class="cls-1" transform="translate(126.56 157.87)">GRIL<tspan class="cls-2" x="400.05" y="0">L</tspan><tspan x="496.2" y="0">UT</tspan></text><text class="cls-3" transform="translate(152.28 198.15)">E<tspan class="cls-4" x="25.99" y="0">X</tspan><tspan class="cls-5" x="52.78" y="0">O</tspan><tspan x="81.83" y="0">TIC </tspan><tspan class="cls-6" x="161.82" y="0">N</tspan><tspan x="191.45" y="0">A PI</tspan><tspan class="cls-7" x="271.44" y="0">N</tspan><tspan x="301.06" y="0">A</tspan><tspan class="cls-5" x="329.07" y="0">L</tspan><tspan x="352.15" y="0">UPIT!</tspan></text></g><g id="Layer_1" data-name="Layer 1"><path class="cls-8" d="M195.35,410.69c8.37.22,16.77-1.39,25.41-4.06,22.37-6.91,36.81-26.21,37.95-49.65.67-13.53-5.07-24.08-15.19-32.65a80.58,80.58,0,0,1,2.67,20.75C246.19,380.72,223.56,409.74,195.35,410.69Z" transform="translate(-113.68 -175.02)"/><path class="cls-9" d="M173.23,405.37c-18.58-10.06-31.59-33.27-31.59-60.29,0-20.88,7.76-39.47,19.85-51.49l5.82.55.8,2.29v-.05s8.94-8.69,25.36-8.91c-21.7-28.06-15.82-73.19,10.87-95.27,10.19-8.44,24-16,37.45-17.18-9.8.79-20.65,3.91-29.85,7-22.23,7.57-41,18.92-57.45,35.77-23.14,23.69-36.73,59.36-39.38,92.32C111.84,350.73,136.92,388.66,173.23,405.37Z" transform="translate(-113.68 -175.02)"/><path class="cls-10" d="M172.34,404.93c-1.18-.41-2.1-.11-3.1-.76l-3.32-2.35c-32.21-25.73-33.87-80-5.29-109.1l.4-.41.58.06c.42,0,6.4.62,6.6.61.16.44.88,2.56,1.06,3l-2.39.4v-.59a30.86,30.86,0,0,1,6.26-4.43,43.59,43.59,0,0,1,20.31-5.16l-.94,2a66.69,66.69,0,0,1-13.09-34.51c-1.67-18.55,3.45-37.8,14.89-52.57A71.77,71.77,0,0,1,241.79,175c-13.28,1.27-26.1,5.56-38.4,10.56a143.89,143.89,0,0,0-34.18,20.19c-25.09,19.41-41.31,48.11-48.71,78.67-3.34,14.4-5.7,29.39-3.68,44.15.11.78.37,2.9.48,3.66s1.12,5.08,1.29,6a19.93,19.93,0,0,0,.61,2.39c.72,2.15,1.37,5,2.23,7.05a96.82,96.82,0,0,0,11.28,21.9,48.79,48.79,0,0,0,2.87,4,96.11,96.11,0,0,0,6.35,7.58c.91,1,2.39,2.66,3.43,3.55a97.68,97.68,0,0,0,7.38,6.58c2.17,1.92,5.61,4.17,7.95,5.89,1.22.71,5.12,3.13,6.35,3.85,2.1.91,3.38,2.56,5.3,3.84Zm1.78.89c-2.61-.82-5.64-1.54-8.08-2.94l-2.16-1.3-4.33-2.6c-2.45-1.72-5.92-4-8.15-6a110.13,110.13,0,0,1-9.4-8.42c-1.64-1.87-3.52-3.73-5.11-5.6-1.17-1.46-3.62-4.53-4.68-6a101.24,101.24,0,0,1-9-15.19,95.92,95.92,0,0,1-4-9.31,19.33,19.33,0,0,1-.83-2.39c-.64-2.25-1.62-5-2.09-7.3-.37-1.76-1.32-5.71-1.5-7.44a93.54,93.54,0,0,1-1.11-15.13c.48-19.31,5.19-38.42,12.45-56.26,9-21.73,23.12-41.43,42-55.58,15.93-12.38,34.69-20.39,54-25.66A109.42,109.42,0,0,1,241.79,175c-12.26,1.16-23.26,7.58-32.9,14.83-30.37,21.72-36.94,69.9-13,98.69-1.83.17-3.89.16-5.69.33-7.58.71-15.39,3.4-21.18,8.4l.37-.89c0,.05,0,7.27,0,7.32-.57-1.62-2.66-7.64-3.2-9.16l1.05.82-5.81-.55,1-.35a65.76,65.76,0,0,0-15.85,26.74c-8.54,27.17-2.22,60.67,20.66,79l3.18,2.28a16.11,16.11,0,0,1,3.77,3.34Z" transform="translate(-113.68 -175.02)"/><path class="cls-8" d="M168.11,296.38v.05l1.89,5.43,5.53,2.68-.15,1.87,0,.23-.79,9.23,3.54,2,2.76-3.41,5.63-7,3.77,1.48.57,2.52,4.59-.72,1.72,3.68,7.26,2.62,1.61,1.21,2.31-2,5-3.39,3.44-.28,2.49-4.42,3.31-5.86v-.16s-11.94-14.76-28.65-14.68h-.45C177.05,287.69,168.11,296.38,168.11,296.38Z" transform="translate(-113.68 -175.02)"/><path class="cls-11" d="M175.35,306.4s1.44.31,2.92,2.63.77,2.85,2.6,5.07l-2.76,3.79-3.54-2Z" transform="translate(-113.68 -175.02)"/><path class="cls-12" d="M141.64,345.08c0,27,13,50.23,31.59,60.29l.05,0c.52.25,1.05.49,1.58.72a53.65,53.65,0,0,0,20.49,4.58c28.21-.95,50.84-30,50.84-65.61a80.58,80.58,0,0,0-2.67-20.75,71.58,71.58,0,0,0-8.63-20L234,306l-1.72-1.86L228.17,306l-4.51-5.63-1.09,1.92-3.31,5.86-2.49,4.42-3.44.28-5,3.39-2.31,2-1.61-1.21-7.26-2.62-1.72-3.68-4.59.72-.57-2.52-3.77-1.48-5.63,7-2.76,3.41-3.54-2,.79-9.23,0-.23.15-1.87L170,301.86l-1.89-5.43-.8-2.29-5.82-.55C149.4,305.61,141.64,324.2,141.64,345.08Z" transform="translate(-113.68 -175.02)"/><path class="cls-13" d="M173.28,405.39a43.09,43.09,0,0,0,20.64,5.33c.48,0,1,0,1.43,0a53.65,53.65,0,0,1-20.49-4.58C174.33,405.88,173.8,405.64,173.28,405.39Z" transform="translate(-113.68 -175.02)"/><polyline class="cls-12" points="106.94 125 132.51 26.35 139.62 28.24 113.5 129.75"/></g></svg>