<?xml version="1.0" encoding="utf-8"?>
<!-- Generator: Adobe Illustrator 26.0.1, SVG Export Plug-In . SVG Version: 6.00 Build 0)  -->
<svg version="1.1" id="Layer_1" xmlns="http://www.w3.org/2000/svg" xmlns:xlink="http://www.w3.org/1999/xlink" x="0px" y="0px"
	 viewBox="0 0 331.71 540.2" style="enable-background:new 0 0 331.71 540.2;" xml:space="preserve">
<style type="text/css">
	.st0{fill:#D54000;}
	.st1{fill:#F1E4A2;stroke:#681600;stroke-width:2;stroke-miterlimit:10;}
	.st2{fill:#424253;stroke:#681600;stroke-width:0.5;stroke-miterlimit:10;}
	.st3{fill:none;stroke:#681600;stroke-width:2;stroke-miterlimit:10;}
	.st4{fill:#681600;stroke:#681600;stroke-width:2;stroke-miterlimit:10;}
</style>
<g id="Layer_1_00000075140493955634681400000005899493424277620639_">
	<path class="st0" d="M186.21,540.1c19.1,0.6,38.4-3.2,58.3-9.4c51.2-15.8,84.5-60.2,87.1-113.8c1.4-31.1-11.7-55.3-34.8-74.8
		c4,15,6,30.9,6,47.6C302.71,471.4,250.81,537.9,186.21,540.1z"/>
	<g>
		<path class="st0" d="M135.41,528c-42.6-23-72.4-76.3-72.4-138.3c0-47.9,17.8-90.5,45.5-118l13.4,1.3l1.9,5.3v-0.1
			c0,0,20.4-20,58.1-20.4c-49.8-64.3-36.3-167.8,24.9-218.4c23.3-19.4,55.1-36.8,85.9-39.5c-22.4,1.9-47.3,8.9-68.5,16.1
			c-50.9,17.4-94,43.3-131.7,82c-53.1,54.4-84.2,136.1-90.4,211.7C-5.29,402.6,52.21,489.6,135.41,528z"/>
		<path class="st0" d="M134.11,527.3c-2.7-1.2-5-1.3-7.3-2.9l-7.6-5.3l-7.2-5.9c-48.4-44.3-61.6-118.3-42.2-179.6
			c7.3-23.6,20-45.6,37.4-63.2l0.6-0.6l0.7,0.1l13.4,1.3l1,0.1c0.1,0.6,2,5.6,2.2,6.3l-3.2,0.6v-0.1v-0.7
			c10.2-9.2,22.9-15,36.1-18.3c7.6-2,15.8-2.9,23.7-3l-1.3,2.6c-46.7-61.1-38.4-155.5,14.4-210.3c26-25.6,61.2-44.5,97.7-48.4
			c-22.9,2.2-45,8.5-66.8,15.8c-50.5,17.1-97.1,45.9-133.8,84.9c-26.3,27.5-46.2,60.7-60.9,95.7c-8.5,21-15.5,43-20.3,65.3
			c-6.2,29.6-10.2,60.3-6,90.5c6.2,47.2,28.9,91.4,61.9,125.3c13.8,14.2,29.6,26.8,46.6,37.1c2.6,1.6,5,2.9,7.3,4.3
			c1.3,0.6,6.2,3.3,7.5,4C130.81,523.8,132.11,525.8,134.11,527.3L134.11,527.3z M136.71,528.6c-3.2-0.7-6.8-1.4-9.6-3l-2.6-1.3
			c-2.6-1.3-7.6-4.2-10.1-5.6c-51.5-29.9-91.5-80-107.1-137.9c-11.4-40.3-8.1-79.6,0.6-119.9c9.8-44.9,27.2-88.5,53.2-126.6
			c43.6-64.6,112.3-105.9,186.7-125.9c14.7-4,29.8-7.3,45-8.6c-35,3.7-66.3,23.6-92,46.8c-41,39.4-56.3,101.7-43.2,156.4
			c4.7,19.4,13.2,37.8,25.5,53.7l1.9,2.4c-3.6,0.3-7.2,0.3-10.8,0.6c-12.8,1.2-25.5,4.7-36.7,10.9c-4.5,2.4-8.9,5.3-12.5,8.6
			l0.6-1.2v0.1v9.6c-1.2-3.3-3.9-11.1-5-14.4l1.4,1.2l-13.4-1.3l1.3-0.4c-8.5,8.5-15.8,18.3-22,28.6c-36,62.6-30.1,149.7,19.9,203.2
			l6.5,6.3l6.9,5.8l7.3,5.3C131.21,523.7,134.21,526.4,136.71,528.6L136.71,528.6z"/>
	</g>
	<path class="st1" d="M123.71,278L123.71,278l4.3,12.5l12.7,6.2l-0.3,4.3v0.6l-1.9,21.2l8.1,4.6l6.3-7.8l13-16l8.6,3.5l1.3,5.8
		l10.5-1.6l3.9,8.5l16.7,6l3.7,2.7l5.3-4.6l11.5-7.8l7.9-0.6l5.8-10.1l7.6-13.5v-0.3c0,0-27.3-33.8-65.6-33.7c-0.3,0-0.7,0-1,0
		C144.21,258,123.71,278,123.71,278z"/>
	<path class="st2" d="M140.31,300.9c0,0,3.3,0.7,6.6,6c3.5,5.3,1.7,6.5,5.9,11.7l-6.3,8.6l-8.1-4.6L140.31,300.9z"/>
	<path class="st3" d="M63.01,389.7c0,62,29.8,115.1,72.4,138.3c0,0,0,0,0.1,0c1.2,0.6,2.4,1.2,3.6,1.6c15.8,6.9,31.4,10.1,46.9,10.5
		c64.8-2.2,116.6-68.8,116.6-150.5c0-16.5-2.2-32.7-6-47.6c-4.5-16.8-11.2-32.4-19.9-45.9l-2,3.9l-3.9-4.3l-9.5,4.3l-10.4-13
		l-2.4,4.5l-7.6,13.5l-5.8,10.1l-7.9,0.6l-11.5,7.8l-5.3,4.6l-3.7-2.7l-16.7-6l-3.9-8.5l-10.5,1.6l-1.3-5.8l-8.6-3.5l-13,16
		l-6.3,7.8l-8.1-4.6l1.9-21.2v-0.6l0.3-4.3l-12.7-6.2l-4.3-12.4l-1.9-5.3l-13.4-1.3C80.81,299.2,63.01,341.8,63.01,389.7z"/>
	<path class="st3" d="M135.51,528c14.5,7.9,30.5,12.2,47.3,12.2c1.2,0,2.2,0,3.3,0c-15.7-0.4-31.2-3.6-46.9-10.5
		C138.01,529,136.71,528.6,135.51,528z"/>
	<polyline class="st4" points="244.01,286.4 302.71,60.2 319.01,64.5 259.11,297.3 	"/>
</g>
</svg>
