<?xml version="1.0" encoding="utf-8"?>
<!-- Generator: Adobe Illustrator 26.0.1, SVG Export Plug-In . SVG Version: 6.00 Build 0)  -->
<svg version="1.1" id="Layer_1" xmlns="http://www.w3.org/2000/svg" xmlns:xlink="http://www.w3.org/1999/xlink" x="0px" y="0px"
	 viewBox="0 0 850.53 235.69" style="enable-background:new 0 0 850.53 235.69;" xml:space="preserve">
<style type="text/css">
	.st0{fill:#D64000;stroke:#681600;stroke-width:2;stroke-miterlimit:10;}
	.st1{fill:#D64000;}
	.st2{fill:#660000;}
	.st3{fill:#F1E4A2;stroke:#681600;stroke-width:2;stroke-miterlimit:10;}
	.st4{fill:#424253;stroke:#681600;stroke-width:0.5;stroke-miterlimit:10;}
	.st5{fill:#FFFFFF;stroke:#681600;stroke-width:2;stroke-miterlimit:10;}
	.st6{fill:none;stroke:#681600;stroke-width:2;stroke-miterlimit:10;}
	.st7{fill:#681600;stroke:#681600;stroke-width:2;stroke-miterlimit:10;}
	.st8{fill:#D64000;stroke:#681600;stroke-miterlimit:10;}
	.st9{fill:#681600;}
</style>
<g id="Layer_1_00000049943507042047934460000001047841605651775112_">
	<path class="st0" d="M80.24,235.67c8.37,0.22,16.77-1.39,25.4-4.06c22.37-6.91,36.81-26.21,37.96-49.65
		c0.66-13.53-5.07-24.08-15.19-32.65c1.73,6.53,2.67,13.5,2.67,20.75C131.08,205.7,108.45,234.72,80.24,235.67z"/>
	<g>
		<path class="st1" d="M58.12,230.35c-18.58-10.07-31.59-33.27-31.59-60.3c0-20.87,7.76-39.47,19.85-51.49l5.81,0.55l0.8,2.3v-0.05
			c0,0,8.94-8.69,25.36-8.92c-21.7-28.05-15.82-73.18,10.87-95.27C99.42,8.74,113.27,1.15,126.68,0c-9.8,0.79-20.66,3.91-29.85,7.04
			c-22.23,7.57-41,18.92-57.45,35.77C16.23,66.5,2.65,102.17,0,135.13C-3.27,175.7,21.81,213.64,58.12,230.35z"/>
		<path class="st2" d="M57.23,229.91c-1.18-0.41-2.09-0.11-3.09-0.76l-3.33-2.36c-32.2-25.73-33.86-80.03-5.29-109.1l0.4-0.41
			l0.58,0.05c0.42,0.01,6.4,0.62,6.6,0.62c0.17,0.43,0.88,2.55,1.07,3.04l-2.39,0.41v-0.05v-0.55c1.94-1.81,4.05-3.21,6.27-4.42
			c6.2-3.42,13.26-5.04,20.31-5.16l-0.94,1.96c-7.64-9.94-11.96-22.15-13.09-34.51c-1.67-18.54,3.45-37.8,14.89-52.57
			C90.68,11.64,108.47,2.01,126.68,0c-13.28,1.27-26.11,5.56-38.4,10.56c-12.26,5.12-23.8,11.91-34.18,20.19
			c-25.09,19.41-41.31,48.1-48.71,78.67c-3.35,14.4-5.71,29.39-3.69,44.15c0.11,0.78,0.38,2.91,0.48,3.67
			c0.13,0.9,1.12,5.08,1.29,6.03c0.11,0.6,0.42,1.81,0.61,2.39c0.72,2.16,1.36,4.96,2.23,7.06c2.8,7.68,6.6,15.19,11.27,21.89
			c0.78,1.14,1.96,2.97,2.87,4.02c1.72,2.26,4.38,5.54,6.35,7.57c0.92,1,2.4,2.66,3.43,3.55c2.01,1.98,5.15,4.86,7.38,6.58
			c2.17,1.92,5.61,4.17,7.95,5.89c1.22,0.72,5.12,3.13,6.34,3.86C54.03,226.98,55.31,228.63,57.23,229.91L57.23,229.91z
			 M59.01,230.8c-2.61-0.83-5.65-1.54-8.08-2.94l-2.17-1.3l-4.33-2.6c-2.45-1.72-5.92-4.04-8.15-5.96c-3.11-2.38-6.59-5.68-9.4-8.42
			c-1.63-1.87-3.52-3.73-5.1-5.6c-1.18-1.46-3.62-4.52-4.68-5.96c-3.37-4.83-6.57-9.84-9.04-15.19c-1.33-2.54-2.93-6.59-3.95-9.31
			c-0.32-0.71-0.62-1.66-0.83-2.39c-0.64-2.25-1.62-5.02-2.09-7.3c-0.36-1.76-1.32-5.72-1.49-7.44c-0.73-4.99-1.21-10.09-1.11-15.14
			c0.48-19.3,5.19-38.42,12.44-56.26C20,63.26,34.15,43.56,53.05,29.41C68.98,17.03,87.74,9.02,107.06,3.75
			c6.43-1.74,12.97-3.21,19.62-3.75c-12.26,1.16-23.26,7.57-32.9,14.83c-30.38,21.72-36.94,69.9-13.05,98.69
			c-1.83,0.17-3.89,0.16-5.69,0.33c-7.58,0.71-15.39,3.4-21.19,8.4l0.37-0.88c0.01,0.04-0.01,7.26,0,7.31
			c-0.57-1.61-2.66-7.63-3.2-9.15l1.05,0.82l-5.81-0.55l0.98-0.35c-7.37,7.4-12.72,16.74-15.85,26.74
			c-8.54,27.16-2.22,60.67,20.66,78.99l3.18,2.28C56.61,228.17,58.03,229.73,59.01,230.8L59.01,230.8z"/>
	</g>
	<path class="st3" d="M53,121.36v0.05l1.89,5.42l5.54,2.68l-0.16,1.88l-0.02,0.23l-0.79,9.23l3.55,2.02l2.76-3.41l5.63-6.98
		l3.77,1.48l0.57,2.52l4.59-0.72l1.72,3.67l7.26,2.62l1.61,1.21l2.31-2.03l5-3.4l3.44-0.28l2.49-4.42l3.31-5.87v-0.16
		c0,0-11.94-14.75-28.65-14.68c-0.15,0-0.3,0-0.45,0.01C61.94,112.67,53,121.36,53,121.36z"/>
	<path class="st4" d="M60.24,131.38c0,0,1.43,0.3,2.91,2.62c1.48,2.32,0.77,2.85,2.61,5.07l-2.76,3.8l-3.55-2.02L60.24,131.38z"/>
	<path class="st5" d="M26.53,170.06c0,27.02,13,50.23,31.59,60.3c0.01,0.01,0.03,0.02,0.05,0.02c0.52,0.24,1.05,0.48,1.58,0.72
		c6.89,3.02,13.68,4.41,20.49,4.58c28.21-0.95,50.84-29.97,50.84-65.61c0-7.25-0.94-14.22-2.67-20.75
		c-1.94-7.33-4.89-14.09-8.64-20.02l-0.86,1.7l-1.72-1.86l-4.14,1.86l-4.51-5.64l-1.09,1.92l-3.31,5.87l-2.49,4.42l-3.44,0.28
		l-5,3.4l-2.31,2.03l-1.61-1.21l-7.26-2.62l-1.72-3.67l-4.59,0.72l-0.57-2.52l-3.77-1.48l-5.63,6.98L63,142.87l-3.55-2.02l0.79-9.23
		l0.02-0.23l0.16-1.88l-5.54-2.68L53,121.41l-0.8-2.3l-5.81-0.55C34.29,130.59,26.53,149.18,26.53,170.06z"/>
	<path class="st6" d="M58.17,230.37c6.33,3.43,13.31,5.32,20.64,5.32c0.48,0,0.95-0.01,1.43-0.03c-6.81-0.17-13.6-1.56-20.49-4.58
		C59.22,230.86,58.69,230.62,58.17,230.37z"/>
	<polyline class="st7" points="105.52,125 131.08,26.35 138.19,28.24 112.07,129.75 	"/>
</g>
<g id="Layer_2_00000003803466220962820360000006264384685996598188_">
	<g>
		<path class="st8" d="M214.84,57.37c7.9,3,14.17,7.42,18.82,13.27s6.98,12.98,6.98,21.38h-31.65c0-4.3-1.9-7.77-5.7-10.42
			s-8.4-3.98-13.8-3.98c-7.8,0-13.7,2.08-17.7,6.23s-6,10.03-6,17.62v9.6c0,7.6,2,13.48,6,17.62c4,4.15,9.9,6.22,17.7,6.22
			c5.4,0,10-1.27,13.8-3.82s5.7-5.82,5.7-9.83h-23.4v-21h55.05v57.6h-17.1l-3.3-10.2c-9.4,8-21.7,12-36.9,12
			c-17.1,0-29.95-4.47-38.55-13.42s-12.9-22.27-12.9-39.97c0-17.5,4.88-30.77,14.62-39.82c9.75-9.05,23.62-13.58,41.62-13.58
			C198.04,52.87,206.93,54.37,214.84,57.37z"/>
		<path class="st8" d="M354.03,103.42c-3.4,5.1-8.35,8.85-14.85,11.25l22.95,43.2h-37.2l-18.3-37.65h-12.3v37.65h-33.15V54.67h63.15
			c7.4,0,13.72,1.43,18.97,4.28s9.2,6.7,11.85,11.55c2.65,4.85,3.97,10.12,3.97,15.83C359.13,92.62,357.43,98.32,354.03,103.42z
			 M322.68,80.92c-1.8-1.8-4-2.7-6.6-2.7h-21.75v19.05h21.75c2.6,0,4.8-0.92,6.6-2.77c1.8-1.85,2.7-4.12,2.7-6.83
			C325.38,84.97,324.48,82.72,322.68,80.92z"/>
		<path class="st8" d="M379.38,157.87V54.67h33.15v103.2H379.38z"/>
		<path class="st8" d="M436.23,54.67h33.15v76.8h52.95v26.4h-86.1V54.67z"/>
		<path class="st8" d="M536.28,54.67h33.15v76.8h52.95v26.4h-86.1L536.28,54.67L536.28,54.67z"/>
		<path class="st8" d="M721.83,148.57c-8.9,7.4-21.55,11.1-37.95,11.1s-29.08-3.7-38.02-11.1c-8.95-7.4-13.43-18.15-13.43-32.25
			V54.67h33.15v61.2c0,5.8,1.55,10.42,4.65,13.87c3.1,3.45,7.6,5.17,13.5,5.17s10.42-1.75,13.57-5.25s4.73-8.1,4.73-13.8v-61.2
			h33.15v61.65C735.18,130.42,730.73,141.17,721.83,148.57z"/>
		<path class="st8" d="M816.78,81.07v76.8h-33.15v-76.8h-33.9v-26.4h100.8v26.4C850.53,81.07,816.78,81.07,816.78,81.07z"/>
	</g>
</g>
<g>
	<path class="st9" d="M152.66,167.33h21.42v5.94h-13.46v3.42h11.52v5.69h-11.52v3.78h13.72v5.94h-21.67V167.33z"/>
	<path class="st9" d="M204,192.1h-9.65l-4.57-7.7h-0.14l-4.57,7.7h-8.93l8.86-13.1L177,167.33h9.61l3.74,6.34h0.14l3.78-6.34h8.89
		l-8.03,11.7L204,192.1z"/>
	<path class="st9" d="M227.65,170.18c2.33,2.18,3.49,5.36,3.49,9.54s-1.16,7.36-3.49,9.54c-2.33,2.18-5.63,3.28-9.9,3.28
		c-4.27,0-7.57-1.08-9.88-3.26c-2.32-2.17-3.47-5.36-3.47-9.56s1.16-7.39,3.47-9.56c2.32-2.17,5.61-3.26,9.88-3.26
		C222.02,166.9,225.32,167.99,227.65,170.18z M213.86,174.39c-0.89,1.03-1.33,2.42-1.33,4.18v2.3c0,1.75,0.44,3.14,1.33,4.18
		c0.89,1.03,2.18,1.55,3.89,1.55c1.7,0,3.01-0.52,3.91-1.55c0.9-1.03,1.35-2.42,1.35-4.18v-2.3c0-1.75-0.45-3.14-1.35-4.18
		c-0.9-1.03-2.2-1.55-3.91-1.55C216.05,172.84,214.75,173.36,213.86,174.39z"/>
	<path class="st9" d="M248.75,173.67v18.43h-7.96v-18.43h-8.14v-6.34h24.19v6.34H248.75z"/>
	<path class="st9" d="M260.84,192.1v-24.77h7.96v24.77H260.84z"/>
	<path class="st9" d="M295.01,169.65c2.14,1.84,3.2,4.46,3.2,7.87h-7.6c0-1.44-0.38-2.58-1.13-3.42c-0.76-0.84-1.83-1.26-3.22-1.26
		c-1.61,0-2.79,0.5-3.55,1.51c-0.76,1.01-1.13,2.41-1.13,4.21v2.3c0,1.78,0.38,3.17,1.13,4.19c0.76,1.02,1.91,1.53,3.47,1.53
		c1.54,0,2.7-0.4,3.49-1.19s1.19-1.91,1.19-3.35h7.34c0,3.38-1.04,5.98-3.11,7.78c-2.08,1.8-5.01,2.7-8.8,2.7
		c-4.22,0-7.42-1.08-9.59-3.24c-2.17-2.16-3.26-5.35-3.26-9.58c0-4.22,1.09-7.42,3.26-9.58c2.17-2.16,5.37-3.24,9.59-3.24
		C289.97,166.9,292.87,167.82,295.01,169.65z"/>
	<path class="st9" d="M332.19,192.1l-10.4-12.02v12.02h-7.31v-24.77h6.95l10.4,12.2v-12.2h7.31v24.77H332.19z"/>
	<path class="st9" d="M360.71,192.1l-1.04-3.49h-8.68l-1.04,3.49h-8.14l9.04-24.77h9.25l9.04,24.77H360.71z M352.64,183.06h5.36
		l-2.59-8.82h-0.14L352.64,183.06z"/>
	<path class="st9" d="M375.5,198.69h-3.89l2.95-6.59h-2.92v-7.16h7.63v6.77L375.5,198.69z"/>
	<path class="st9" d="M414.09,168.39c1.2,0.71,2.14,1.68,2.81,2.92c0.67,1.24,1.01,2.62,1.01,4.16v0.47c0,1.54-0.34,2.93-1.01,4.18
		c-0.67,1.25-1.61,2.23-2.81,2.93c-1.2,0.71-2.57,1.06-4.1,1.06h-5.94v7.99h-7.96v-24.77h13.9
		C411.53,167.33,412.89,167.69,414.09,168.39z M404.05,178.31h3.28c0.84,0,1.47-0.22,1.89-0.65c0.42-0.43,0.63-1.02,0.63-1.76v-0.29
		c0-0.77-0.21-1.36-0.63-1.78c-0.42-0.42-1.05-0.63-1.89-0.63h-3.28V178.31z"/>
	<path class="st9" d="M422.45,192.1v-24.77h7.96v24.77H422.45z"/>
	<path class="st9" d="M453.8,192.1l-10.4-12.02v12.02h-7.31v-24.77h6.95l10.4,12.2v-12.2h7.31v24.77H453.8z"/>
	<path class="st9" d="M482.31,192.1l-1.04-3.49h-8.68l-1.04,3.49h-8.14l9.04-24.77h9.25l9.04,24.77H482.31z M474.25,183.06h5.36
		l-2.59-8.82h-0.14L474.25,183.06z"/>
	<path class="st9" d="M493.72,167.33h7.96v18.43h12.71v6.34h-20.66V167.33z"/>
	<path class="st9" d="M538.26,189.87c-2.14,1.78-5.17,2.66-9.11,2.66s-6.98-0.89-9.13-2.66c-2.15-1.78-3.22-4.36-3.22-7.74v-14.8
		h7.96v14.69c0,1.39,0.37,2.5,1.12,3.33c0.74,0.83,1.82,1.24,3.24,1.24s2.5-0.42,3.26-1.26c0.76-0.84,1.13-1.94,1.13-3.31v-14.69
		h7.96v14.8C541.46,185.51,540.39,188.09,538.26,189.87z"/>
	<path class="st9" d="M564.79,168.39c1.2,0.71,2.14,1.68,2.81,2.92c0.67,1.24,1.01,2.62,1.01,4.16v0.47c0,1.54-0.34,2.93-1.01,4.18
		c-0.67,1.25-1.61,2.23-2.81,2.93s-2.57,1.06-4.1,1.06h-5.94v7.99h-7.96v-24.77h13.9C562.22,167.33,563.59,167.69,564.79,168.39z
		 M554.74,178.31h3.28c0.84,0,1.47-0.22,1.89-0.65c0.42-0.43,0.63-1.02,0.63-1.76v-0.29c0-0.77-0.21-1.36-0.63-1.78
		s-1.05-0.63-1.89-0.63h-3.28V178.31z"/>
	<path class="st9" d="M573.14,192.1v-24.77h7.96v24.77H573.14z"/>
	<path class="st9" d="M601.04,173.67v18.43h-7.96v-18.43h-8.14v-6.34h24.19v6.34H601.04z"/>
	<path class="st9" d="M642.76,168.39c1.2,0.71,2.14,1.68,2.81,2.92c0.67,1.24,1.01,2.62,1.01,4.16v0.47c0,1.54-0.34,2.93-1.01,4.18
		c-0.67,1.25-1.61,2.23-2.81,2.93s-2.57,1.06-4.1,1.06h-5.94v7.99h-7.96v-24.77h13.9C640.19,167.33,641.56,167.69,642.76,168.39z
		 M632.72,178.31h3.28c0.84,0,1.47-0.22,1.89-0.65c0.42-0.43,0.63-1.02,0.63-1.76v-0.29c0-0.77-0.21-1.36-0.63-1.78
		s-1.05-0.63-1.89-0.63h-3.28V178.31z"/>
	<path class="st9" d="M664.29,192.1l-1.04-3.49h-8.68l-1.04,3.49h-8.14l9.04-24.77h9.25l9.04,24.77H664.29z M656.23,183.06h5.36
		l-2.59-8.82h-0.14L656.23,183.06z"/>
	<path class="st9" d="M676.71,183.24l-1.98-15.91h8.6l-2.05,15.91H676.71z M675.45,192.1v-6.66h7.13v6.66H675.45z"/>
</g>
</svg>
