<svg xmlns="http://www.w3.org/2000/svg" viewBox="0 0 852.96 236.7"><defs><style>.cls-1,.cls-2{fill:#fff;}.cls-1,.cls-2,.cls-3,.cls-6,.cls-7{stroke:#681600;stroke-miterlimit:10;}.cls-1,.cls-3,.cls-7{stroke-width:2px;}.cls-3,.cls-4{fill:#f1e4a2;}.cls-5{fill:#600;}.cls-6{fill:#424253;stroke-width:0.5px;}.cls-7{fill:none;}</style></defs><g id="Layer_2" data-name="Layer 2"><path class="cls-1" d="M330,232.39a42.87,42.87,0,0,1,18.82,13.27q7,8.78,7,21.38H324.1c0-4.3-1.91-7.77-5.7-10.43a23.61,23.61,0,0,0-13.8-4q-11.7,0-17.7,6.22t-6,17.63v9.6q0,11.4,6,17.62t17.7,6.23a24.22,24.22,0,0,0,13.8-3.83c3.79-2.55,5.7-5.82,5.7-9.82H300.7v-21h55.05v57.6h-17.1l-3.3-10.2q-14.12,12-36.9,12-25.65,0-38.55-13.43t-12.9-40q0-26.25,14.62-39.83t41.63-13.57A74.8,74.8,0,0,1,330,232.39Z" transform="translate(-113.68 -175.02)"/><path class="cls-1" d="M469.14,278.44a29.47,29.47,0,0,1-14.85,11.25l22.95,43.2H440l-18.3-37.65h-12.3v37.65H376.29V229.69h63.15q11.1,0,19,4.27a28.77,28.77,0,0,1,11.85,11.55,32.52,32.52,0,0,1,4,15.83A30.15,30.15,0,0,1,469.14,278.44Zm-31.35-22.5a9,9,0,0,0-6.6-2.7H409.44v19.05h21.75a8.82,8.82,0,0,0,6.6-2.78,9.38,9.38,0,0,0,2.7-6.82A9.16,9.16,0,0,0,437.79,255.94Z" transform="translate(-113.68 -175.02)"/><path class="cls-1" d="M494.49,332.89V229.69h33.15v103.2Z" transform="translate(-113.68 -175.02)"/><path class="cls-1" d="M551.34,229.69h33.15v76.8h53v26.4h-86.1Z" transform="translate(-113.68 -175.02)"/><path class="cls-1" d="M651.39,229.69h33.15v76.8h53v26.4h-86.1Z" transform="translate(-113.68 -175.02)"/><path class="cls-1" d="M836.94,323.59q-13.35,11.1-38,11.1t-38-11.1q-13.43-11.1-13.43-32.25V229.69h33.15v61.2q0,8.7,4.65,13.87t13.5,5.18q8.85,0,13.58-5.25t4.72-13.8v-61.2h33.15v61.65Q850.29,312.49,836.94,323.59Z" transform="translate(-113.68 -175.02)"/><path class="cls-1" d="M931.89,256.09v76.8H898.74v-76.8h-33.9v-26.4h100.8v26.4Z" transform="translate(-113.68 -175.02)"/><path class="cls-2" d="M268.63,348.4h21.42v5.94H276.58v3.42H288.1v5.69H276.58v3.78H290.3v5.94H268.63Z" transform="translate(-113.68 -175.02)"/><path class="cls-2" d="M320,373.17h-9.65l-4.57-7.7h-.14l-4.57,7.7H292.1l8.86-13.1-8-11.67h9.62l3.74,6.34h.14l3.78-6.34h8.9l-8,11.7Z" transform="translate(-113.68 -175.02)"/><path class="cls-2" d="M343.62,351.25q3.48,3.27,3.49,9.54t-3.49,9.54q-3.5,3.27-9.9,3.27t-9.89-3.26q-3.46-3.25-3.47-9.55t3.47-9.56q3.48-3.25,9.89-3.26T343.62,351.25Zm-13.79,4.21a6.16,6.16,0,0,0-1.33,4.17v2.31a6.16,6.16,0,0,0,1.33,4.17,4.81,4.81,0,0,0,3.89,1.55,4.87,4.87,0,0,0,3.9-1.55,6.12,6.12,0,0,0,1.35-4.17v-2.31a6.12,6.12,0,0,0-1.35-4.17,4.9,4.9,0,0,0-3.9-1.55A4.84,4.84,0,0,0,329.83,355.46Z" transform="translate(-113.68 -175.02)"/><path class="cls-2" d="M364.71,354.74v18.43h-7.95V354.74h-8.14V348.4h24.19v6.34Z" transform="translate(-113.68 -175.02)"/><path class="cls-2" d="M376.81,373.17V348.4h7.95v24.77Z" transform="translate(-113.68 -175.02)"/><path class="cls-2" d="M411,350.72c2.14,1.84,3.2,4.46,3.2,7.87h-7.59a5,5,0,0,0-1.13-3.42,4.84,4.84,0,0,0-6.77.25,6.86,6.86,0,0,0-1.14,4.21v2.31a6.88,6.88,0,0,0,1.14,4.19,4,4,0,0,0,3.47,1.53,4.69,4.69,0,0,0,3.49-1.19,4.51,4.51,0,0,0,1.19-3.34h7.34c0,3.38-1,6-3.11,7.77s-5,2.7-8.8,2.7q-6.35,0-9.59-3.24t-3.26-9.57q0-6.35,3.26-9.58t9.59-3.24Q407.77,348,411,350.72Z" transform="translate(-113.68 -175.02)"/><path class="cls-2" d="M448.16,373.17l-10.41-12v12h-7.3V348.4h6.94l10.41,12.21V348.4h7.31v24.77Z" transform="translate(-113.68 -175.02)"/><path class="cls-2" d="M476.67,373.17l-1.05-3.49H467l-1,3.49h-8.14l9-24.77h9.25l9,24.77Zm-8.06-9H474l-2.59-8.82h-.15Z" transform="translate(-113.68 -175.02)"/><path class="cls-2" d="M518.07,349.46a7.51,7.51,0,0,1,2.81,2.92,8.59,8.59,0,0,1,1,4.16V357a8.68,8.68,0,0,1-1,4.17,7.5,7.5,0,0,1-2.81,2.94,8,8,0,0,1-4.11,1.06H508v8h-7.95V348.4H514A8,8,0,0,1,518.07,349.46ZM508,359.38h3.28a2.49,2.49,0,0,0,1.89-.65,2.42,2.42,0,0,0,.63-1.76v-.29a2.4,2.4,0,0,0-.63-1.78,2.57,2.57,0,0,0-1.89-.63H508Z" transform="translate(-113.68 -175.02)"/><path class="cls-2" d="M526.42,373.17V348.4h8v24.77Z" transform="translate(-113.68 -175.02)"/><path class="cls-2" d="M557.78,373.17l-10.41-12v12h-7.31V348.4h7l10.41,12.21V348.4h7.3v24.77Z" transform="translate(-113.68 -175.02)"/><path class="cls-2" d="M586.29,373.17l-1-3.49h-8.67l-1.05,3.49h-8.13l9-24.77h9.26l9,24.77Zm-8.07-9h5.37L581,355.31h-.15Z" transform="translate(-113.68 -175.02)"/><path class="cls-2" d="M597.7,348.4h8v18.43h12.7v6.34H597.7Z" transform="translate(-113.68 -175.02)"/><path class="cls-2" d="M642.23,370.94c-2.14,1.77-5.17,2.66-9.11,2.66s-7-.89-9.12-2.66-3.22-4.36-3.22-7.74V348.4h8v14.69a4.78,4.78,0,0,0,1.12,3.33,4.11,4.11,0,0,0,3.24,1.24,4.18,4.18,0,0,0,3.26-1.26,4.78,4.78,0,0,0,1.13-3.31V348.4h8v14.8Q645.44,368.27,642.23,370.94Z" transform="translate(-113.68 -175.02)"/><path class="cls-2" d="M668.76,349.46a7.45,7.45,0,0,1,2.81,2.92,8.59,8.59,0,0,1,1,4.16V357a8.69,8.69,0,0,1-1,4.17,7.43,7.43,0,0,1-2.81,2.94,8,8,0,0,1-4.1,1.06h-5.94v8h-8V348.4h13.9A8,8,0,0,1,668.76,349.46Zm-10,9.92H662a2.48,2.48,0,0,0,1.88-.65,2.42,2.42,0,0,0,.63-1.76v-.29a2.4,2.4,0,0,0-.63-1.78,2.56,2.56,0,0,0-1.88-.63h-3.28Z" transform="translate(-113.68 -175.02)"/><path class="cls-2" d="M677.11,373.17V348.4h8v24.77Z" transform="translate(-113.68 -175.02)"/><path class="cls-2" d="M705,354.74v18.43h-8V354.74h-8.14V348.4h24.19v6.34Z" transform="translate(-113.68 -175.02)"/><path class="cls-2" d="M717.76,364.31l-2-15.91h8.6l-2,15.91Zm-1.26,8.86v-6.66h7.12v6.66Z" transform="translate(-113.68 -175.02)"/></g><g id="Layer_1" data-name="Layer 1"><path class="cls-3" d="M195.35,410.69c8.37.22,16.77-1.39,25.41-4.06,22.37-6.91,36.81-26.21,37.95-49.65.67-13.53-5.07-24.08-15.19-32.65a80.58,80.58,0,0,1,2.67,20.75C246.19,380.72,223.56,409.74,195.35,410.69Z" transform="translate(-113.68 -175.02)"/><path class="cls-4" d="M173.23,405.37c-18.58-10.06-31.59-33.27-31.59-60.29,0-20.88,7.76-39.47,19.85-51.49l5.82.55.8,2.29v-.05s8.94-8.69,25.36-8.91c-21.7-28.06-15.82-73.19,10.87-95.27,10.19-8.44,24-16,37.45-17.18-9.8.79-20.65,3.91-29.85,7-22.23,7.57-41,18.92-57.45,35.77-23.14,23.69-36.73,59.36-39.38,92.32C111.84,350.73,136.92,388.66,173.23,405.37Z" transform="translate(-113.68 -175.02)"/><path class="cls-5" d="M172.34,404.93c-1.18-.41-2.1-.11-3.1-.76l-3.32-2.35c-32.21-25.73-33.87-80-5.29-109.1l.4-.41.58.06c.42,0,6.4.62,6.6.61.16.44.88,2.56,1.06,3l-2.39.4v-.59a30.86,30.86,0,0,1,6.26-4.43,43.59,43.59,0,0,1,20.31-5.16l-.94,2a66.69,66.69,0,0,1-13.09-34.51c-1.67-18.55,3.45-37.8,14.89-52.57A71.77,71.77,0,0,1,241.79,175c-13.28,1.27-26.1,5.56-38.4,10.56a143.89,143.89,0,0,0-34.18,20.19c-25.09,19.41-41.31,48.11-48.71,78.67-3.34,14.4-5.7,29.39-3.68,44.15.11.78.37,2.9.48,3.66s1.12,5.08,1.29,6a19.93,19.93,0,0,0,.61,2.39c.72,2.15,1.37,5,2.23,7.05a96.82,96.82,0,0,0,11.28,21.9,48.79,48.79,0,0,0,2.87,4,96.11,96.11,0,0,0,6.35,7.58c.91,1,2.39,2.66,3.43,3.55a97.68,97.68,0,0,0,7.38,6.58c2.17,1.92,5.61,4.17,7.95,5.89,1.22.71,5.12,3.13,6.35,3.85,2.1.91,3.38,2.56,5.3,3.84Zm1.78.89c-2.61-.82-5.64-1.54-8.08-2.94l-2.16-1.3-4.33-2.6c-2.45-1.72-5.92-4-8.15-6a110.13,110.13,0,0,1-9.4-8.42c-1.64-1.87-3.52-3.73-5.11-5.6-1.17-1.46-3.62-4.53-4.68-6a101.24,101.24,0,0,1-9-15.19,95.92,95.92,0,0,1-4-9.31,19.33,19.33,0,0,1-.83-2.39c-.64-2.25-1.62-5-2.09-7.3-.37-1.76-1.32-5.71-1.5-7.44a93.54,93.54,0,0,1-1.11-15.13c.48-19.31,5.19-38.42,12.45-56.26,9-21.73,23.12-41.43,42-55.58,15.93-12.38,34.69-20.39,54-25.66A109.42,109.42,0,0,1,241.79,175c-12.26,1.16-23.26,7.58-32.9,14.83-30.37,21.72-36.94,69.9-13,98.69-1.83.17-3.89.16-5.69.33-7.58.71-15.39,3.4-21.18,8.4l.37-.89c0,.05,0,7.27,0,7.32-.57-1.62-2.66-7.64-3.2-9.16l1.05.82-5.81-.55,1-.35a65.76,65.76,0,0,0-15.85,26.74c-8.54,27.17-2.22,60.67,20.66,79l3.18,2.28a16.11,16.11,0,0,1,3.77,3.34Z" transform="translate(-113.68 -175.02)"/><path class="cls-3" d="M168.11,296.38v.05l1.89,5.43,5.53,2.68-.15,1.87,0,.23-.79,9.23,3.54,2,2.76-3.41,5.63-7,3.77,1.48.57,2.52,4.59-.72,1.72,3.68,7.26,2.62,1.61,1.21,2.31-2,5-3.39,3.44-.28,2.49-4.42,3.31-5.86v-.16s-11.94-14.76-28.65-14.68h-.45C177.05,287.69,168.11,296.38,168.11,296.38Z" transform="translate(-113.68 -175.02)"/><path class="cls-6" d="M175.35,306.4s1.44.31,2.92,2.63.77,2.85,2.6,5.07l-2.76,3.79-3.54-2Z" transform="translate(-113.68 -175.02)"/><path class="cls-1" d="M141.64,345.08c0,27,13,50.23,31.59,60.29l.05,0c.52.25,1.05.49,1.58.72a53.65,53.65,0,0,0,20.49,4.58c28.21-.95,50.84-30,50.84-65.61a80.58,80.58,0,0,0-2.67-20.75,71.58,71.58,0,0,0-8.63-20L234,306l-1.72-1.86L228.17,306l-4.51-5.63-1.09,1.92-3.31,5.86-2.49,4.42-3.44.28-5,3.39-2.31,2-1.61-1.21-7.26-2.62-1.72-3.68-4.59.72-.57-2.52-3.77-1.48-5.63,7-2.76,3.41-3.54-2,.79-9.23,0-.23.15-1.87L170,301.86l-1.89-5.43-.8-2.29-5.82-.55C149.4,305.61,141.64,324.2,141.64,345.08Z" transform="translate(-113.68 -175.02)"/><path class="cls-7" d="M173.28,405.39a43.09,43.09,0,0,0,20.64,5.33c.48,0,1,0,1.43,0a53.65,53.65,0,0,1-20.49-4.58C174.33,405.88,173.8,405.64,173.28,405.39Z" transform="translate(-113.68 -175.02)"/><polyline class="cls-1" points="106.94 125 132.51 26.35 139.62 28.24 113.5 129.75"/></g></svg>